# Blender v2.75 (sub 0) OBJ File: 'PowerCell.blend'
# www.blender.org
mtllib PowerCell.mtl
o Cylinder
v 0.000000 1.400000 -0.650000
v 0.000000 1.600000 -0.650000
v 0.126809 1.400000 -0.637510
v 0.126809 1.600000 -0.637510
v 0.248744 1.400000 -0.600522
v 0.248744 1.600000 -0.600522
v 0.361121 1.400000 -0.540455
v 0.361121 1.600000 -0.540455
v 0.459619 1.400000 -0.459619
v 0.459619 1.600000 -0.459619
v 0.540455 1.400000 -0.361121
v 0.540455 1.600000 -0.361121
v 0.600522 1.400000 -0.248744
v 0.600522 1.600000 -0.248744
v 0.637510 1.400000 -0.126809
v 0.637510 1.600000 -0.126809
v 0.650000 1.400000 -0.000000
v 0.650000 1.600000 -0.000000
v 0.637510 1.400000 0.126809
v 0.637510 1.600000 0.126809
v 0.600522 1.400000 0.248744
v 0.600522 1.600000 0.248744
v 0.540455 1.400000 0.361121
v 0.540455 1.600000 0.361121
v 0.459619 1.400000 0.459619
v 0.459619 1.600000 0.459619
v 0.361121 1.400000 0.540455
v 0.361121 1.600000 0.540455
v 0.248744 1.400000 0.600522
v 0.248744 1.600000 0.600522
v 0.126809 1.400000 0.637510
v 0.126809 1.600000 0.637510
v -0.000000 1.400000 0.650000
v -0.000000 1.600000 0.650000
v -0.126809 1.400000 0.637510
v -0.126809 1.600000 0.637510
v -0.248745 1.400000 0.600522
v -0.248745 1.600000 0.600522
v -0.361121 1.400000 0.540455
v -0.361121 1.600000 0.540455
v -0.459620 1.400000 0.459619
v -0.459620 1.600000 0.459619
v -0.540455 1.400000 0.361120
v -0.540455 1.600000 0.361120
v -0.600522 1.400000 0.248744
v -0.600522 1.600000 0.248744
v -0.637510 1.400000 0.126808
v -0.637510 1.600000 0.126808
v -0.650000 1.400000 -0.000001
v -0.650000 1.600000 -0.000001
v -0.637510 1.400000 -0.126809
v -0.637510 1.600000 -0.126809
v -0.600521 1.400000 -0.248745
v -0.600521 1.600000 -0.248745
v -0.540455 1.400000 -0.361121
v -0.540455 1.600000 -0.361121
v -0.459619 1.400000 -0.459620
v -0.459619 1.600000 -0.459620
v -0.361120 1.400000 -0.540456
v -0.361120 1.600000 -0.540456
v -0.248743 1.400000 -0.600522
v -0.248743 1.600000 -0.600522
v -0.126808 1.400000 -0.637511
v -0.126808 1.600000 -0.637511
v 0.000000 -1.500000 -1.000000
v 0.000000 1.500000 -1.000000
v 0.866025 -1.500000 -0.500000
v 0.866025 1.500000 -0.500000
v 0.866025 -1.500000 0.500000
v 0.866025 1.500000 0.500000
v -0.000000 -1.500000 1.000000
v -0.000000 1.500000 1.000000
v -0.866025 -1.500000 0.500000
v -0.866025 1.500000 0.500000
v -0.866025 -1.500000 -0.500000
v -0.866025 1.500000 -0.500000
v 0.000000 -1.600000 -0.650000
v 0.000000 -1.400000 -0.650000
v 0.126809 -1.600000 -0.637510
v 0.126809 -1.400000 -0.637510
v 0.248744 -1.600000 -0.600522
v 0.248744 -1.400000 -0.600522
v 0.361121 -1.600000 -0.540455
v 0.361121 -1.400000 -0.540455
v 0.459619 -1.600000 -0.459619
v 0.459619 -1.400000 -0.459619
v 0.540455 -1.600000 -0.361121
v 0.540455 -1.400000 -0.361121
v 0.600522 -1.600000 -0.248744
v 0.600522 -1.400000 -0.248744
v 0.637510 -1.600000 -0.126809
v 0.637510 -1.400000 -0.126809
v 0.650000 -1.600000 -0.000000
v 0.650000 -1.400000 -0.000000
v 0.637510 -1.600000 0.126809
v 0.637510 -1.400000 0.126809
v 0.600522 -1.600000 0.248744
v 0.600522 -1.400000 0.248744
v 0.540455 -1.600000 0.361121
v 0.540455 -1.400000 0.361121
v 0.459619 -1.600000 0.459619
v 0.459619 -1.400000 0.459619
v 0.361121 -1.600000 0.540455
v 0.361121 -1.400000 0.540455
v 0.248744 -1.600000 0.600522
v 0.248744 -1.400000 0.600522
v 0.126809 -1.600000 0.637510
v 0.126809 -1.400000 0.637510
v -0.000000 -1.600000 0.650000
v -0.000000 -1.400000 0.650000
v -0.126809 -1.600000 0.637510
v -0.126809 -1.400000 0.637510
v -0.248745 -1.600000 0.600522
v -0.248745 -1.400000 0.600522
v -0.361121 -1.600000 0.540455
v -0.361121 -1.400000 0.540455
v -0.459620 -1.600000 0.459619
v -0.459620 -1.400000 0.459619
v -0.540455 -1.600000 0.361120
v -0.540455 -1.400000 0.361120
v -0.600522 -1.600000 0.248744
v -0.600522 -1.400000 0.248744
v -0.637510 -1.600000 0.126808
v -0.637510 -1.400000 0.126808
v -0.650000 -1.600000 -0.000001
v -0.650000 -1.400000 -0.000001
v -0.637510 -1.600000 -0.126809
v -0.637510 -1.400000 -0.126809
v -0.600521 -1.600000 -0.248745
v -0.600521 -1.400000 -0.248745
v -0.540455 -1.600000 -0.361121
v -0.540455 -1.400000 -0.361121
v -0.459619 -1.600000 -0.459620
v -0.459619 -1.400000 -0.459620
v -0.361120 -1.600000 -0.540456
v -0.361120 -1.400000 -0.540456
v -0.248743 -1.600000 -0.600522
v -0.248743 -1.400000 -0.600522
v -0.126808 -1.600000 -0.637511
v -0.126808 -1.400000 -0.637511
vn 0.098000 0.000000 -0.995200
vn 0.290300 0.000000 -0.956900
vn 0.471400 0.000000 -0.881900
vn 0.634400 0.000000 -0.773000
vn 0.773000 0.000000 -0.634400
vn 0.881900 0.000000 -0.471400
vn 0.956900 0.000000 -0.290300
vn 0.995200 0.000000 -0.098000
vn 0.995200 0.000000 0.098000
vn 0.956900 0.000000 0.290300
vn 0.881900 0.000000 0.471400
vn 0.773000 0.000000 0.634400
vn 0.634400 0.000000 0.773000
vn 0.471400 0.000000 0.881900
vn 0.290300 0.000000 0.956900
vn 0.098000 0.000000 0.995200
vn -0.098000 0.000000 0.995200
vn -0.290300 0.000000 0.956900
vn -0.471400 0.000000 0.881900
vn -0.634400 0.000000 0.773000
vn -0.773000 0.000000 0.634400
vn -0.881900 0.000000 0.471400
vn -0.956900 0.000000 0.290300
vn -0.995200 0.000000 0.098000
vn -0.995200 0.000000 -0.098000
vn -0.956900 0.000000 -0.290300
vn -0.881900 0.000000 -0.471400
vn -0.773000 0.000000 -0.634400
vn -0.634400 0.000000 -0.773000
vn -0.471400 0.000000 -0.881900
vn 0.000000 1.000000 0.000000
vn -0.098000 0.000000 -0.995200
vn -0.290300 0.000000 -0.956900
vn 0.000000 -1.000000 0.000000
vn 0.500000 0.000000 -0.866000
vn 1.000000 0.000000 0.000000
vn 0.500000 0.000000 0.866000
vn -0.500000 0.000000 0.866000
vn -0.500000 0.000000 -0.866000
vn -1.000000 0.000000 0.000000
usemtl None
s off
f 1//1 2//1 4//1 3//1
f 3//2 4//2 6//2 5//2
f 5//3 6//3 8//3 7//3
f 7//4 8//4 10//4 9//4
f 9//5 10//5 12//5 11//5
f 11//6 12//6 14//6 13//6
f 13//7 14//7 16//7 15//7
f 15//8 16//8 18//8 17//8
f 17//9 18//9 20//9 19//9
f 19//10 20//10 22//10 21//10
f 21//11 22//11 24//11 23//11
f 23//12 24//12 26//12 25//12
f 25//13 26//13 28//13 27//13
f 27//14 28//14 30//14 29//14
f 29//15 30//15 32//15 31//15
f 31//16 32//16 34//16 33//16
f 33//17 34//17 36//17 35//17
f 35//18 36//18 38//18 37//18
f 37//19 38//19 40//19 39//19
f 39//20 40//20 42//20 41//20
f 41//21 42//21 44//21 43//21
f 43//22 44//22 46//22 45//22
f 45//23 46//23 48//23 47//23
f 47//24 48//24 50//24 49//24
f 49//25 50//25 52//25 51//25
f 51//26 52//26 54//26 53//26
f 53//27 54//27 56//27 55//27
f 55//28 56//28 58//28 57//28
f 57//29 58//29 60//29 59//29
f 59//30 60//30 62//30 61//30
f 4//31 2//31 64//31 62//31 60//31 58//31 56//31 54//31 52//31 50//31 48//31 46//31 44//31 42//31 40//31 38//31 36//31 34//31 32//31 30//31 28//31 26//31 24//31 22//31 20//31 18//31 16//31 14//31 12//31 10//31 8//31 6//31
f 63//32 64//32 2//32 1//32
f 61//33 62//33 64//33 63//33
f 1//34 3//34 5//34 7//34 9//34 11//34 13//34 15//34 17//34 19//34 21//34 23//34 25//34 27//34 29//34 31//34 33//34 35//34 37//34 39//34 41//34 43//34 45//34 47//34 49//34 51//34 53//34 55//34 57//34 59//34 61//34 63//34
f 65//35 66//35 68//35 67//35
f 67//36 68//36 70//36 69//36
f 69//37 70//37 72//37 71//37
f 71//38 72//38 74//38 73//38
f 68//31 66//31 76//31 74//31 72//31 70//31
f 75//39 76//39 66//39 65//39
f 73//40 74//40 76//40 75//40
f 65//34 67//34 69//34 71//34 73//34 75//34
f 77//1 78//1 80//1 79//1
f 79//2 80//2 82//2 81//2
f 81//3 82//3 84//3 83//3
f 83//4 84//4 86//4 85//4
f 85//5 86//5 88//5 87//5
f 87//6 88//6 90//6 89//6
f 89//7 90//7 92//7 91//7
f 91//8 92//8 94//8 93//8
f 93//9 94//9 96//9 95//9
f 95//10 96//10 98//10 97//10
f 97//11 98//11 100//11 99//11
f 99//12 100//12 102//12 101//12
f 101//13 102//13 104//13 103//13
f 103//14 104//14 106//14 105//14
f 105//15 106//15 108//15 107//15
f 107//16 108//16 110//16 109//16
f 109//17 110//17 112//17 111//17
f 111//18 112//18 114//18 113//18
f 113//19 114//19 116//19 115//19
f 115//20 116//20 118//20 117//20
f 117//21 118//21 120//21 119//21
f 119//22 120//22 122//22 121//22
f 121//23 122//23 124//23 123//23
f 123//24 124//24 126//24 125//24
f 125//25 126//25 128//25 127//25
f 127//26 128//26 130//26 129//26
f 129//27 130//27 132//27 131//27
f 131//28 132//28 134//28 133//28
f 133//29 134//29 136//29 135//29
f 135//30 136//30 138//30 137//30
f 80//31 78//31 140//31 138//31 136//31 134//31 132//31 130//31 128//31 126//31 124//31 122//31 120//31 118//31 116//31 114//31 112//31 110//31 108//31 106//31 104//31 102//31 100//31 98//31 96//31 94//31 92//31 90//31 88//31 86//31 84//31 82//31
f 139//32 140//32 78//32 77//32
f 137//33 138//33 140//33 139//33
f 77//34 79//34 81//34 83//34 85//34 87//34 89//34 91//34 93//34 95//34 97//34 99//34 101//34 103//34 105//34 107//34 109//34 111//34 113//34 115//34 117//34 119//34 121//34 123//34 125//34 127//34 129//34 131//34 133//34 135//34 137//34 139//34
