# Blender v2.76 (sub 0) OBJ File: 'ATLAS.blend'
# www.blender.org
mtllib ATLAS.mtl
o Body_Cube.004
v -2.000000 0.000000 7.000000
v -2.000000 1.000000 7.000000
v -2.000000 0.000000 4.000000
v -2.000000 1.000000 4.000000
v -1.000000 0.000000 7.000000
v -1.000000 1.000000 7.000000
v -1.000000 0.000000 4.000000
v -1.000000 1.000000 4.000000
v -2.000000 0.000000 8.000000
v -2.000000 2.000000 8.000000
v -2.000000 0.000000 7.900000
v -2.000000 2.000000 7.900000
v 2.000000 0.000000 8.000000
v 2.000000 2.000000 8.000000
v 2.000000 0.000000 7.900000
v 2.000000 2.000000 7.900000
v -2.000000 1.000000 8.000000
v -2.000000 1.000000 7.900000
v 2.000000 1.000000 7.900000
v 2.000000 1.000000 8.000000
v -1.000000 2.000000 7.900000
v 0.000000 2.000000 7.900000
v 1.000000 2.000000 7.900000
v 1.000000 0.000000 7.900000
v 0.000000 0.000000 7.900000
v -1.000000 0.000000 7.900000
v 1.000000 2.000000 8.000000
v 0.000000 2.000000 8.000000
v -1.000000 2.000000 8.000000
v -1.000000 0.000000 8.000000
v 0.000000 0.000000 8.000000
v 1.000000 0.000000 8.000000
v -1.000000 1.000000 8.000000
v 0.000000 1.000000 8.000000
v 1.000000 1.000000 8.000000
v 1.000000 1.000000 7.900000
v 0.000000 1.000000 7.900000
v -1.000000 1.000000 7.900000
v 1.000000 2.000000 7.000000
v 2.000000 2.000000 7.000000
v 2.000000 0.000000 7.000000
v 1.000000 0.000000 7.000000
v 2.000000 1.000000 7.000000
v 1.000000 1.000000 7.000000
v -1.000000 0.000000 7.000000
v -2.000000 0.000000 7.000000
v -1.000000 1.000000 7.000000
v -2.000000 1.000000 7.000000
v -2.000000 2.000000 7.000000
v -1.000000 2.000000 7.000000
v -5.000000 1.000000 3.000000
v -5.000000 2.000000 3.000000
v -5.000000 1.000000 2.000000
v -5.000000 2.000000 2.000000
v 5.000000 1.000000 3.000000
v 5.000000 2.000000 3.000000
v 5.000000 1.000000 2.000000
v 5.000000 2.000000 2.000000
v -4.000000 2.000000 2.000000
v -3.000000 2.000000 2.000000
v -2.000000 2.000000 2.000000
v -1.000000 2.000000 2.000000
v 0.000000 2.000000 2.000000
v 1.000000 2.000000 2.000000
v 2.000000 2.000000 2.000000
v 3.000000 2.000000 2.000000
v 4.000000 2.000000 2.000000
v 4.000000 1.000000 2.000000
v 3.000000 1.000000 2.000000
v 2.000000 1.000000 2.000000
v 1.000000 1.000000 2.000000
v 0.000000 1.000000 2.000000
v -1.000000 1.000000 2.000000
v -2.000000 1.000000 2.000000
v -3.000000 1.000000 2.000000
v -4.000000 1.000000 2.000000
v 4.000000 2.000000 3.000000
v 3.000000 2.000000 3.000000
v 2.000000 2.000000 3.000000
v 1.000000 2.000000 3.000000
v 0.000000 2.000000 3.000000
v -1.000000 2.000000 3.000000
v -2.000000 2.000000 3.000000
v -3.000000 2.000000 3.000000
v -4.000000 2.000000 3.000000
v -4.000000 1.000000 3.000000
v -3.000000 1.000000 3.000000
v -2.000000 1.000000 3.000000
v -1.000000 1.000000 3.000000
v 0.000000 1.000000 3.000000
v 1.000000 1.000000 3.000000
v 2.000000 1.000000 3.000000
v 3.000000 1.000000 3.000000
v 4.000000 1.000000 3.000000
v -4.000003 1.000000 -8.000000
v -5.000000 1.000000 -8.000000
v -5.000000 2.000000 -7.000000
v -4.000003 2.000000 -7.000000
v 4.000000 2.000000 -7.000000
v 4.999997 2.000000 -7.000000
v 4.999997 1.000000 -8.000000
v 4.000000 1.000000 -8.000000
v -2.001437 -0.000000 4.002856
v -2.001437 6.000000 4.002856
v -2.001437 -0.000000 3.002856
v -2.001437 6.000000 3.002856
v 1.998563 -0.000000 4.002856
v 1.998563 6.000000 4.002856
v 1.998563 -0.000000 3.002856
v 1.998563 6.000000 3.002856
v -5.000000 0.000000 3.000000
v -5.000000 1.000000 3.000000
v -5.000000 0.000000 -8.000000
v -5.000000 1.000000 -8.000000
v 5.000000 0.000000 3.000000
v 5.000000 1.000000 3.000000
v 5.000000 0.000000 -8.000000
v 5.000000 1.000000 -8.000000
v 2.000000 0.000000 3.000000
v 2.000000 0.000000 8.000000
v -2.000001 0.000000 8.000000
v -1.999999 0.000000 3.000000
v 2.000001 0.100000 3.000002
v 1.999999 0.100000 8.000002
v -2.000001 0.100000 7.999999
v -2.000000 0.100000 3.000000
v 1.000000 0.000000 7.000000
v 1.000000 1.000000 7.000000
v 1.000000 0.000000 4.000000
v 1.000000 1.000000 4.000000
v 2.000000 0.000000 7.000000
v 2.000000 1.000000 7.000000
v 2.000000 0.000000 4.000000
v 2.000000 1.000000 4.000000
vn -1.000000 0.000000 0.000000
vn 0.000000 0.000000 -1.000000
vn 1.000000 0.000000 0.000000
vn 0.000000 0.000000 1.000000
vn 0.000000 -1.000000 0.000000
vn 0.000000 1.000000 0.000000
vn 0.000000 0.707100 -0.707100
usemtl Material
s off
f 2//1 4//1 3//1 1//1
f 4//2 8//2 7//2 3//2
f 8//3 6//3 5//3 7//3
f 6//4 2//4 1//4 5//4
f 1//5 3//5 7//5 5//5
f 6//6 8//6 4//6 2//6
f 17//1 18//1 11//1 9//1
f 43//3 19//3 15//3 41//3
f 19//3 20//3 13//3 15//3
f 9//4 30//4 33//4 17//4
f 16//3 14//3 20//3 19//3
f 40//3 16//3 19//3 43//3
f 10//1 12//1 18//1 17//1
f 50//3 21//3 38//3 47//3
f 21//2 22//2 37//2 38//2
f 22//2 23//2 36//2 37//2
f 14//6 16//6 23//6 27//6
f 27//4 28//4 34//4 35//4
f 28//4 29//4 33//4 34//4
f 42//5 41//5 15//5 24//5
f 27//6 23//6 22//6 28//6
f 28//6 22//6 21//6 29//6
f 10//6 29//6 21//6 12//6
f 30//5 26//5 25//5 31//5
f 31//5 25//5 24//5 32//5
f 35//4 34//4 31//4 32//4
f 34//4 33//4 30//4 31//4
f 47//3 38//3 26//3 45//3
f 38//2 37//2 25//2 26//2
f 37//2 36//2 24//2 25//2
f 13//4 20//4 35//4 32//4
f 13//5 32//5 24//5 15//5
f 20//4 14//4 27//4 35//4
f 40//6 39//6 23//6 16//6
f 23//1 39//1 44//1 36//1
f 39//2 40//2 43//2 44//2
f 36//1 44//1 42//1 24//1
f 44//2 43//2 41//2 42//2
f 18//1 48//1 46//1 11//1
f 48//2 47//2 45//2 46//2
f 17//4 33//4 29//4 10//4
f 46//5 45//5 26//5 11//5
f 12//1 49//1 48//1 18//1
f 49//2 50//2 47//2 48//2
f 50//6 49//6 12//6 21//6
f 9//5 11//5 26//5 30//5
f 52//1 54//1 53//1 51//1
f 100//3 58//3 57//3 101//3
f 58//3 56//3 55//3 57//3
f 55//5 94//5 68//5 57//5
f 100//6 99//6 67//6 58//6
f 102//5 101//5 57//5 68//5
f 77//6 67//6 66//6 78//6
f 78//6 66//6 65//6 79//6
f 79//6 65//6 64//6 80//6
f 80//6 64//6 63//6 81//6
f 81//6 63//6 62//6 82//6
f 82//6 62//6 61//6 83//6
f 83//6 61//6 60//6 84//6
f 84//6 60//6 59//6 85//6
f 96//5 95//5 76//5 53//5
f 86//5 76//5 75//5 87//5
f 87//5 75//5 74//5 88//5
f 88//5 74//5 73//5 89//5
f 89//5 73//5 72//5 90//5
f 90//5 72//5 71//5 91//5
f 91//5 71//5 70//5 92//5
f 92//5 70//5 69//5 93//5
f 93//5 69//5 68//5 94//5
f 77//4 78//4 93//4 94//4
f 78//4 79//4 92//4 93//4
f 79//4 80//4 91//4 92//4
f 80//4 81//4 90//4 91//4
f 81//4 82//4 89//4 90//4
f 82//4 83//4 88//4 89//4
f 83//4 84//4 87//4 88//4
f 84//4 85//4 86//4 87//4
f 98//3 59//3 76//3 95//3
f 59//2 60//2 75//2 76//2
f 60//2 61//2 74//2 75//2
f 61//2 62//2 73//2 74//2
f 62//2 63//2 72//2 73//2
f 63//2 64//2 71//2 72//2
f 64//2 65//2 70//2 71//2
f 65//2 66//2 69//2 70//2
f 66//2 67//2 68//2 69//2
f 54//1 97//1 96//1 53//1
f 97//7 98//7 95//7 96//7
f 51//4 86//4 85//4 52//4
f 51//5 53//5 76//5 86//5
f 98//6 97//6 54//6 59//6
f 55//4 56//4 77//4 94//4
f 56//6 58//6 67//6 77//6
f 52//6 85//6 59//6 54//6
f 67//1 99//1 102//1 68//1
f 99//7 100//7 101//7 102//7
f 104//1 106//1 105//1 103//1
f 106//2 110//2 109//2 105//2
f 110//3 108//3 107//3 109//3
f 108//4 104//4 103//4 107//4
f 103//5 105//5 109//5 107//5
f 108//6 110//6 106//6 104//6
f 112//1 114//1 113//1 111//1
f 114//2 118//2 117//2 113//2
f 118//3 116//3 115//3 117//3
f 116//4 112//4 111//4 115//4
f 111//5 113//5 117//5 115//5
f 116//6 118//6 114//6 112//6
f 119//5 120//5 121//5 122//5
f 123//6 126//6 125//6 124//6
f 119//3 123//3 124//3 120//3
f 120//4 124//4 125//4 121//4
f 121//1 125//1 126//1 122//1
f 123//2 119//2 122//2 126//2
f 128//1 130//1 129//1 127//1
f 130//2 134//2 133//2 129//2
f 134//3 132//3 131//3 133//3
f 132//4 128//4 127//4 131//4
f 127//5 129//5 133//5 131//5
f 132//6 134//6 130//6 128//6
o WindShield_Cube.009
v -2.000000 2.000000 8.000000
v -2.000000 5.500000 6.500000
v -2.000000 2.000000 7.000000
v -2.000000 3.000000 7.000000
v 2.000000 2.000000 8.000000
v 2.000000 5.500000 6.500000
v 2.000000 2.000000 7.000000
v 2.000000 3.000000 7.000000
v -2.000000 5.000000 6.000000
v 2.000000 5.000000 6.000000
v 2.000000 3.000000 8.000000
v -2.000000 3.000000 8.000000
v 2.000000 6.000000 4.000000
v -2.000000 6.000000 4.000000
v 2.000000 5.000000 4.000000
v -2.000000 5.000000 4.000000
vn -1.000000 0.000000 0.000000
vn 0.000000 0.000000 -1.000000
vn 1.000000 0.000000 0.000000
vn 0.000000 0.000000 1.000000
vn 0.000000 -1.000000 0.000000
vn 0.000000 0.980600 0.196100
vn 0.000000 -0.447200 -0.894400
vn 0.000000 0.514500 0.857500
usemtl GlassShield
s off
f 136//8 148//8 150//8 143//8 138//8 137//8 135//8 146//8
f 138//9 142//9 141//9 137//9
f 142//10 144//10 149//10 147//10 140//10 145//10 139//10 141//10
f 145//11 146//11 135//11 139//11
f 135//12 137//12 141//12 139//12
f 140//13 147//13 148//13 136//13
f 144//14 142//14 138//14 143//14
f 140//15 136//15 146//15 145//15
f 149//12 144//12 143//12 150//12
f 147//9 149//9 150//9 148//9
o RDoor_Cube.002
v -2.000000 1.000000 7.000000
v -2.000000 2.000000 7.000000
v -2.000000 1.000000 4.000000
v -2.000000 2.000000 4.000000
v -1.900000 1.000000 7.000000
v -1.900000 2.000000 7.000000
v -1.900000 1.000000 4.000000
v -1.900000 2.000000 4.000000
vn -1.000000 0.000000 0.000000
vn 0.000000 0.000000 -1.000000
vn 1.000000 0.000000 0.000000
vn 0.000000 0.000000 1.000000
vn 0.000000 -1.000000 0.000000
vn 0.000000 1.000000 0.000000
usemtl None
s off
f 152//16 154//16 153//16 151//16
f 154//17 158//17 157//17 153//17
f 158//18 156//18 155//18 157//18
f 156//19 152//19 151//19 155//19
f 151//20 153//20 157//20 155//20
f 156//21 158//21 154//21 152//21
o RGlass_Cube.006
v -2.000000 2.000000 7.000000
v -2.000000 3.000000 7.000000
v -2.000000 2.000000 4.000000
v -2.000000 5.000000 4.000000
v -1.900000 2.000000 7.000000
v -1.900000 3.000000 7.000000
v -1.900000 2.000000 4.000000
v -1.900000 5.000000 4.000000
v -2.000000 5.000000 6.000000
v -1.900000 5.000000 6.000000
vn -1.000000 0.000000 0.000000
vn 0.000000 0.000000 -1.000000
vn 1.000000 0.000000 0.000000
vn 0.000000 0.000000 1.000000
vn 0.000000 -1.000000 0.000000
vn 0.000000 0.447200 0.894400
vn 0.000000 1.000000 0.000000
usemtl Glass.002
s off
f 160//22 167//22 162//22 161//22 159//22
f 162//23 166//23 165//23 161//23
f 166//24 168//24 164//24 163//24 165//24
f 164//25 160//25 159//25 163//25
f 159//26 161//26 165//26 163//26
f 164//27 168//27 167//27 160//27
f 168//28 166//28 162//28 167//28
o LDoor_Cube.003
v 1.900000 1.000000 7.000000
v 1.900000 2.000000 7.000000
v 1.900000 1.000000 4.000000
v 1.900000 2.000000 4.000000
v 2.000000 1.000000 7.000000
v 2.000000 2.000000 7.000000
v 2.000000 1.000000 4.000000
v 2.000000 2.000000 4.000000
vn -1.000000 0.000000 0.000000
vn 0.000000 0.000000 -1.000000
vn 1.000000 0.000000 0.000000
vn 0.000000 0.000000 1.000000
vn 0.000000 -1.000000 0.000000
vn 0.000000 1.000000 0.000000
usemtl None
s off
f 170//29 172//29 171//29 169//29
f 172//30 176//30 175//30 171//30
f 176//31 174//31 173//31 175//31
f 174//32 170//32 169//32 173//32
f 169//33 171//33 175//33 173//33
f 174//34 176//34 172//34 170//34
o LGlass_Cube.007
v 1.900000 2.000000 7.000000
v 1.900000 3.000000 7.000000
v 1.900000 2.000000 4.000000
v 1.900000 5.000000 4.000000
v 2.000000 2.000000 7.000000
v 2.000000 3.000000 7.000000
v 2.000000 2.000000 4.000000
v 2.000000 5.000000 4.000000
v 1.900000 5.000000 6.000000
v 2.000000 5.000000 6.000000
vn -1.000000 0.000000 0.000000
vn 0.000000 0.000000 -1.000000
vn 1.000000 0.000000 0.000000
vn 0.000000 0.000000 1.000000
vn 0.000000 -1.000000 0.000000
vn 0.000000 0.447200 0.894400
vn 0.000000 1.000000 0.000000
usemtl Glass.001
s off
f 178//35 185//35 180//35 179//35 177//35
f 180//36 184//36 183//36 179//36
f 184//37 186//37 182//37 181//37 183//37
f 182//38 178//38 177//38 181//38
f 177//39 179//39 183//39 181//39
f 182//40 186//40 185//40 178//40
f 186//41 184//41 180//41 185//41
o Chair_Cube.011
v -0.500000 0.799999 5.449512
v -0.500000 2.799999 5.449512
v -0.500000 0.799999 5.249512
v -0.500000 2.799999 5.249512
v 0.500000 0.799999 5.449512
v 0.500000 2.799999 5.449512
v 0.500000 0.799999 5.249512
v 0.500000 2.799999 5.249512
v -0.500000 0.575000 6.750000
v -0.500000 0.825000 6.750000
v -0.500000 0.575000 5.250000
v -0.500000 0.825000 5.250000
v 0.500000 0.575000 6.750000
v 0.500000 0.825000 6.750000
v 0.500000 0.575000 5.250000
v 0.500000 0.825000 5.250000
v -0.250000 0.100000 6.562500
v -0.250000 0.600000 6.562500
v -0.250000 0.100000 5.437500
v -0.250000 0.600000 5.437500
v 0.250000 0.100000 6.562500
v 0.250000 0.600000 6.562500
v 0.250000 0.100000 5.437500
v 0.250000 0.600000 5.437500
vn -1.000000 0.000000 0.000000
vn 0.000000 0.000000 -1.000000
vn 1.000000 0.000000 0.000000
vn 0.000000 0.000000 1.000000
vn 0.000000 -1.000000 0.000000
vn 0.000000 1.000000 0.000000
usemtl None
s off
f 188//42 190//42 189//42 187//42
f 190//43 194//43 193//43 189//43
f 194//44 192//44 191//44 193//44
f 192//45 188//45 187//45 191//45
f 187//46 189//46 193//46 191//46
f 192//47 194//47 190//47 188//47
f 196//42 198//42 197//42 195//42
f 198//43 202//43 201//43 197//43
f 202//44 200//44 199//44 201//44
f 200//45 196//45 195//45 199//45
f 195//46 197//46 201//46 199//46
f 200//47 202//47 198//47 196//47
f 204//42 206//42 205//42 203//42
f 206//43 210//43 209//43 205//43
f 210//44 208//44 207//44 209//44
f 208//45 204//45 203//45 207//45
f 203//46 205//46 209//46 207//46
f 208//47 210//47 206//47 204//47
